<svg width="119" height="46" viewBox="0 0 119 46" fill="none" xmlns="http://www.w3.org/2000/svg">
<path d="M82.2649 26.6305L81.3483 26.6158L81.3482 26.6232V26.6305H82.2649ZM81.1799 22.3491L80.3766 22.7907L80.381 22.7985L81.1799 22.3491ZM77.5244 18.9551L77.9053 18.1213L77.8984 18.1182L77.5244 18.9551ZM74.4364 18.293L74.4384 17.3762L74.4261 17.3763L74.4364 18.293ZM70.013 19.7312L70.5416 20.4802L70.5438 20.4786L70.013 19.7312ZM66.5634 26.6333L65.6467 26.6333L65.6467 26.6348L66.5634 26.6333ZM69.9852 33.3685L70.536 32.6357L70.5269 32.629L69.9852 33.3685ZM78.4953 33.5744L77.9935 32.8073L77.987 32.8115L77.9806 32.8158L78.4953 33.5744ZM88.4464 33.1181L87.7846 33.7524L87.786 33.7538L88.4464 33.1181ZM89.7901 34.0835L89.3985 34.9123L89.405 34.9153L89.4116 34.9183L89.7901 34.0835ZM91.6791 34.4618V33.5451H91.6652L91.6513 33.5456L91.6791 34.4618ZM109.342 34.8819L108.522 34.4717L107.858 35.7986H109.342V34.8819ZM117.223 26.6389L118.14 26.6468L118.14 26.6461L117.223 26.6389ZM101.491 26.6333L102.408 26.626L102.408 26.6243L101.491 26.6333ZM109.345 34.8763L110.164 35.2865L110.827 33.9624L109.346 33.9597L109.345 34.8763ZM96.3528 33.1515L95.691 33.7858L95.6913 33.7861L96.3528 33.1515ZM97.6965 34.1168L97.3061 34.9463L97.318 34.9517L97.6965 34.1168ZM99.5855 34.4952V33.5785H99.5716L99.5577 33.579L99.5855 34.4952ZM23.0171 45.9167C23.5233 45.917 23.934 45.5069 23.9343 45.0006C23.9347 44.4943 23.5245 44.0837 23.0183 44.0833L23.0171 45.9167ZM10.5261 39.9904C10.1178 39.6911 9.54411 39.7794 9.2448 40.1877C8.94548 40.596 9.03383 41.1696 9.44213 41.469L10.5261 39.9904ZM29.0725 43.1925C28.5889 43.3424 28.3184 43.8559 28.4683 44.3394C28.6182 44.823 29.1317 45.0935 29.6153 44.9436L29.0725 43.1925ZM39.6372 37.3607L38.9459 36.7587L38.9458 36.7588L39.6372 37.3607ZM44.7484 15.6719C44.5868 15.1921 44.0669 14.9342 43.5871 15.0958C43.1073 15.2574 42.8494 15.7773 43.011 16.2571L44.7484 15.6719ZM23.0154 8.48514C23.5217 8.48486 23.9318 8.07422 23.9315 7.56796C23.9313 7.0617 23.5206 6.65153 23.0144 6.65181L23.0154 8.48514ZM10.9049 13.4106L10.1877 12.8396L10.1808 12.8486L10.9049 13.4106ZM7.60272 22.5633L6.68652 22.5336L6.6864 22.5382L7.60272 22.5633ZM7.54354 28.2613C7.7051 28.741 8.22501 28.999 8.7048 28.8375C9.18459 28.6759 9.44257 28.156 9.28101 27.6762L7.54354 28.2613ZM10.7379 30.693C10.471 30.2628 9.90588 30.1305 9.47571 30.3975C9.04555 30.6644 8.91323 31.2295 9.18017 31.6597L10.7379 30.693ZM35.1081 32.534L34.3876 31.9673L34.3858 31.9696L35.1081 32.534ZM38.4465 23.0001L39.3632 23.0068L39.3632 22.9989L39.3631 22.9911L38.4465 23.0001ZM35.1081 13.4218L35.8318 12.859L35.8263 12.8521L35.1081 13.4218ZM30.3854 8.40389C29.9341 8.1744 29.3822 8.35419 29.1527 8.80545C28.9233 9.25671 29.103 9.80856 29.5543 10.038L30.3854 8.40389ZM14.6016 20.9132C14.7105 20.4188 14.3979 19.9297 13.9035 19.8209C13.409 19.712 12.92 20.0246 12.8112 20.519L14.6016 20.9132ZM13.4588 22.989L14.3755 22.9895L14.3755 22.9893L13.4588 22.989ZM13.737 25.3453L12.8456 25.5593L12.848 25.5688L13.737 25.3453ZM15.8068 29.2929L15.1173 29.897L15.1215 29.9018L15.8068 29.2929ZM19.3065 31.7967L18.9516 32.6419L18.9535 32.6427L19.3065 31.7967ZM22.9231 32.559L22.9524 31.6427L22.9416 31.6425L22.9231 32.559ZM25.1487 32.2808L25.4027 33.1616L25.4124 33.1587L25.1487 32.2808ZM26.5118 31.6882L26.9738 32.48L27.4272 32.2154L27.4285 31.6905L26.5118 31.6882ZM26.5341 22.733L27.4508 22.7353L27.4508 22.7077L27.4492 22.6802L26.5341 22.733ZM24.7926 19.8314L24.313 20.6126L24.3155 20.6142L24.7926 19.8314ZM23.2124 19.3001L23.3023 18.3878L23.2574 18.3834H23.2124V19.3001ZM19.6598 19.3001V18.3834H18.7432V19.3001H19.6598ZM19.6598 22.3324H18.7432V22.3816L18.7484 22.4305L19.6598 22.3324ZM20.1494 23.9293L20.9714 23.5234L20.9654 23.5114L20.9592 23.4996L20.1494 23.9293ZM21.941 25.771L21.5127 26.5814L21.5226 26.5867L21.5327 26.5917L21.941 25.771ZM23.5379 26.1883L23.4925 27.1038L23.5152 27.1049H23.5379V26.1883ZM26.3727 27.1049C26.879 27.1049 27.2894 26.6945 27.2894 26.1883C27.2894 25.682 26.879 25.2716 26.3727 25.2716V27.1049ZM30.3323 27.6101C30.0574 28.0352 30.1792 28.6027 30.6044 28.8776C31.0295 29.1525 31.597 29.0307 31.8719 28.6056L30.3323 27.6101ZM32.1843 25.7626L33.0625 26.0253L33.0641 26.0198L32.1843 25.7626ZM32.0035 19.6868L32.8665 19.3777L32.8624 19.3666L32.0035 19.6868ZM26.9263 14.2786L26.5492 15.1141L26.5526 15.1156L26.9263 14.2786ZM18.9838 14.3036L18.6014 13.4705L18.5973 13.4724L18.9838 14.3036ZM15.0154 16.2184C14.6901 16.6062 14.7408 17.1844 15.1287 17.5098C15.5166 17.8351 16.0948 17.7844 16.4201 17.3965L15.0154 16.2184ZM39.3131 9.61406C39.6347 10.0051 40.2124 10.0614 40.6034 9.73978C40.9944 9.41821 41.0507 8.84054 40.7291 8.44953L39.3131 9.61406ZM2.4644 30.9121L1.60871 31.2408L1.609 31.2416L2.4644 30.9121ZM4.5484 36.5928C4.84948 36.9998 5.4235 37.0856 5.8305 36.7845C6.23749 36.4834 6.32335 35.9094 6.02226 35.5024L4.5484 36.5928ZM51.3126 13.7319H68.469V11.8986H51.3126V13.7319ZM60.7894 35.3159V12.7819H58.956V35.3159H60.7894ZM83.1815 35.3159V26.6305H81.3482V35.3159H83.1815ZM83.1814 26.6453C83.2081 24.9848 82.7931 23.347 81.9788 21.8996L80.381 22.7985C81.036 23.9628 81.3698 25.2801 81.3483 26.6158L83.1814 26.6453ZM81.9832 21.9074C81.0663 20.2398 79.6363 18.9121 77.9053 18.1213L77.1434 19.7888C78.5159 20.4159 79.6497 21.4685 80.3766 22.7907L81.9832 21.9074ZM77.8984 18.1182C76.8096 17.6316 75.6309 17.3789 74.4384 17.3763L74.4344 19.2096C75.3705 19.2116 76.2957 19.41 77.1504 19.792L77.8984 18.1182ZM74.4261 17.3763C72.6529 17.3962 70.928 17.957 69.4822 18.9839L70.5438 20.4786C71.6852 19.668 73.0468 19.2252 74.4466 19.2096L74.4261 17.3763ZM69.4845 18.9823C65.7082 21.6472 65.6467 26.2239 65.6467 26.6333H67.48C67.48 26.2805 67.5688 22.5781 70.5416 20.4802L69.4845 18.9823ZM65.6467 26.6348C65.649 28.0909 65.9939 29.5261 66.6535 30.8244L68.2879 29.994C67.7586 28.9522 67.4819 27.8004 67.48 26.6319L65.6467 26.6348ZM66.6535 30.8244C67.313 32.1226 68.2688 33.2474 69.4435 34.108L70.5269 32.629C69.5842 31.9385 68.8172 31.0358 68.2879 29.994L66.6535 30.8244ZM69.4345 34.1013C70.8073 35.133 72.4683 35.71 74.1851 35.7516L74.2294 33.9188C72.8946 33.8865 71.6033 33.4379 70.5359 32.6357L69.4345 34.1013ZM74.1851 35.7516C75.9019 35.7931 77.5888 35.2971 79.0099 34.3329L77.9806 32.8158C76.8757 33.5654 75.5642 33.9511 74.2294 33.9188L74.1851 35.7516ZM78.9971 34.3415C82.7357 31.8958 83.1198 27.3732 83.1649 26.7871L81.337 26.6465C81.293 27.2177 80.9316 30.8852 77.9935 32.8073L78.9971 34.3415ZM86.2473 10.2642V29.4793H88.0806V10.2642H86.2473ZM86.2473 29.4793C86.2473 29.9401 86.2267 32.1268 87.7846 33.7524L89.1082 32.4838C88.1012 31.4331 88.0806 29.9421 88.0806 29.4793H86.2473ZM87.786 33.7538C88.2487 34.2346 88.7951 34.6271 89.3985 34.9123L90.1817 33.2547C89.7796 33.0646 89.4153 32.803 89.1069 32.4825L87.786 33.7538ZM89.4116 34.9183C90.1316 35.2447 90.9167 35.402 91.7068 35.3781L91.6513 33.5456C91.1409 33.561 90.6337 33.4595 90.1686 33.2486L89.4116 34.9183ZM91.6791 35.3785H92.6249V33.5451H91.6791V35.3785ZM109.342 35.7986C114.393 35.7986 118.1 31.2753 118.14 26.6468L116.307 26.631C116.274 30.4207 113.227 33.9652 109.342 33.9652V35.7986ZM118.14 26.6461C118.177 21.9479 114.435 17.331 109.341 17.3373L109.343 19.1707C113.257 19.1658 116.337 22.7837 116.307 26.6317L118.14 26.6461ZM109.341 17.3373C104.247 17.3436 100.529 21.9548 100.574 26.6423L102.408 26.6243C102.37 22.7879 105.428 19.1755 109.343 19.1707L109.341 17.3373ZM100.574 26.6406C100.611 31.2562 104.3 35.7836 109.343 35.793L109.346 33.9597C105.471 33.9524 102.438 30.4065 102.408 26.626L100.574 26.6406ZM108.525 34.4662L108.522 34.4717L110.162 35.2921L110.164 35.2865L108.525 34.4662ZM94.1536 10.3003V29.5155H95.987V10.3003H94.1536ZM94.1536 29.5155C94.1536 29.9766 94.1332 32.1604 95.691 33.7858L97.0146 32.5172C96.0074 31.4664 95.987 29.9779 95.987 29.5155H94.1536ZM95.6913 33.7861C96.1541 34.2684 96.7014 34.6616 97.3062 34.9463L98.0868 33.2874C97.6852 33.0984 97.3216 32.8372 97.0143 32.5169L95.6913 33.7861ZM97.318 34.9517C98.038 35.2781 98.8231 35.4354 99.6132 35.4114L99.5577 33.579C99.0473 33.5944 98.5401 33.4928 98.075 33.282L97.318 34.9517ZM99.5855 35.4119H100.531V33.5785H99.5855V35.4119ZM23.0183 44.0833C18.5252 44.0804 14.1497 42.6468 10.5261 39.9904L9.44213 41.469C13.3799 44.3556 18.1346 45.9135 23.0171 45.9167L23.0183 44.0833ZM29.6153 44.9436C33.7656 43.6572 37.4754 41.2398 40.3286 37.9626L38.9458 36.7588C36.3164 39.779 32.8974 42.0069 29.0725 43.1925L29.6153 44.9436ZM40.3285 37.9626C42.9465 34.956 44.7319 31.3165 45.5073 27.4059L43.709 27.0493C42.9958 30.646 41.3537 33.9934 38.9459 36.7587L40.3285 37.9626ZM45.5073 27.4059C46.2827 23.4954 46.0211 19.45 44.7484 15.6719L43.011 16.2571C44.1815 19.732 44.4221 23.4527 43.709 27.0493L45.5073 27.4059ZM23.0144 6.65181C20.5488 6.65318 18.1153 7.21021 15.8947 8.2815L16.6913 9.93273C18.6638 8.98115 20.8254 8.48636 23.0154 8.48514L23.0144 6.65181ZM15.8947 8.2815C13.6741 9.35279 11.7234 10.9108 10.1878 12.8397L11.6221 13.9816C12.9861 12.2682 14.7188 10.8843 16.6913 9.93273L15.8947 8.2815ZM10.1808 12.8486C8.02383 15.6276 6.8008 19.0175 6.68654 22.5336L8.5189 22.5931C8.6206 19.4635 9.70921 16.4463 11.6291 13.9727L10.1808 12.8486ZM6.6864 22.5382C6.63299 24.4814 6.92316 26.4189 7.54354 28.2613L9.28101 27.6762C8.72951 26.0384 8.47156 24.316 8.51904 22.5885L6.6864 22.5382ZM9.18017 31.6597C10.5618 33.8861 12.4607 35.746 14.7153 37.0812L15.6495 35.5038C13.6489 34.319 11.9639 32.6686 10.7379 30.693L9.18017 31.6597ZM14.7153 37.0812C16.9699 38.4164 19.5136 39.1874 22.1302 39.3287L22.229 37.498C19.9072 37.3727 17.6501 36.6885 15.6495 35.5038L14.7153 37.0812ZM22.1302 39.3287C24.7467 39.4699 27.3586 38.9772 29.7439 37.8925L28.9849 36.2236C26.8684 37.1862 24.5507 37.6233 22.229 37.498L22.1302 39.3287ZM29.7439 37.8925C32.1291 36.8078 34.2172 35.1631 35.8305 33.0983L34.3858 31.9696C32.9543 33.8017 31.1015 35.2611 28.9849 36.2236L29.7439 37.8925ZM35.8287 33.1006C38.0932 30.2208 39.3365 26.6702 39.3632 23.0068L37.5299 22.9935C37.5062 26.2504 36.4009 29.4071 34.3876 31.9673L35.8287 33.1006ZM39.3631 22.9911C39.3271 19.3182 38.0865 15.7587 35.8318 12.8591L34.3845 13.9845C36.3928 16.5671 37.4978 19.7376 37.5299 23.0091L39.3631 22.9911ZM35.8263 12.8521C34.3536 10.9954 32.4978 9.47814 30.3854 8.40389L29.5543 10.038C31.4317 10.9928 33.0811 12.3412 34.39 13.9914L35.8263 12.8521ZM12.8112 20.519C12.6326 21.3301 12.5424 22.1582 12.5421 22.9887L14.3755 22.9893C14.3757 22.2911 14.4515 21.595 14.6016 20.9132L12.8112 20.519ZM12.5421 22.9884C12.5416 23.8544 12.6435 24.7173 12.8456 25.5593L14.6283 25.1313C14.4599 24.4298 14.375 23.7109 14.3755 22.9895L12.5421 22.9884ZM12.848 25.5688C13.2508 27.171 14.0286 28.6545 15.1173 29.897L16.4962 28.6889C15.599 27.6648 14.958 26.4422 14.626 25.1218L12.848 25.5688ZM15.1215 29.9018C16.1772 31.0901 17.486 32.0264 18.9516 32.6419L19.6614 30.9516C18.4487 30.4423 17.3657 29.6674 16.492 28.6841L15.1215 29.9018ZM18.9535 32.6427C20.2067 33.1656 21.547 33.4481 22.9046 33.4755L22.9416 31.6425C21.8139 31.6197 20.7005 31.3851 19.6595 30.9507L18.9535 32.6427ZM22.8937 33.4752C23.7413 33.5024 24.5879 33.3965 25.4026 33.1616L24.8947 31.4C24.2639 31.5819 23.6086 31.6638 22.9524 31.6428L22.8937 33.4752ZM25.4124 33.1587C25.9578 32.9948 26.482 32.767 26.9738 32.48L26.0498 30.8965C25.6828 31.1106 25.2918 31.2806 24.8849 31.4029L25.4124 33.1587ZM27.4285 31.6905L27.4508 22.7353L25.6174 22.7308L25.5952 31.686L27.4285 31.6905ZM27.4492 22.6802C27.4067 21.9437 27.1861 21.2286 26.8065 20.5961L25.2346 21.5396C25.4616 21.9178 25.5935 22.3455 25.6189 22.7859L27.4492 22.6802ZM26.8065 20.5961C26.4269 19.9636 25.8995 19.4326 25.2697 19.0487L24.3155 20.6142C24.6922 20.8438 25.0075 21.1613 25.2346 21.5396L26.8065 20.5961ZM25.2722 19.0502C24.6742 18.6831 24.0006 18.4566 23.3023 18.3878L23.1225 20.2123C23.5445 20.2539 23.9516 20.3908 24.313 20.6126L25.2722 19.0502ZM23.2124 18.3834H19.6598V20.2167H23.2124V18.3834ZM18.7432 19.3001V22.3324H20.5765V19.3001H18.7432ZM18.7484 22.4305C18.821 23.1051 19.0217 23.7596 19.3397 24.3589L20.9592 23.4996C20.7505 23.1064 20.6189 22.677 20.5712 22.2343L18.7484 22.4305ZM19.3275 24.3352C19.8015 25.2951 20.5662 26.0811 21.5127 26.5814L22.3694 24.9605C21.7638 24.6405 21.2746 24.1376 20.9714 23.5234L19.3275 24.3352ZM21.5327 26.5917C22.1437 26.8956 22.8109 27.07 23.4925 27.1038L23.5833 25.2727C23.1542 25.2514 22.734 25.1416 22.3493 24.9502L21.5327 26.5917ZM23.5379 27.1049H26.3727V25.2716H23.5379V27.1049ZM31.8719 28.6056C32.3888 27.8061 32.7897 26.9374 33.0625 26.0253L31.3061 25.4999C31.0829 26.2458 30.7551 26.9563 30.3323 27.6101L31.8719 28.6056ZM33.0641 26.0198C33.7011 23.8404 33.6319 21.5154 32.8665 19.3777L31.1404 19.9958C31.7754 21.769 31.8328 23.6976 31.3044 25.5055L33.0641 26.0198ZM32.8624 19.3666C32.375 18.0592 31.6321 16.8619 30.6771 15.8446L29.3405 17.0995C30.1289 17.9393 30.7422 18.9276 31.1445 20.007L32.8624 19.3666ZM30.6771 15.8446C29.7222 14.8274 28.5741 14.0105 27.3001 13.4416L26.5526 15.1156C27.6044 15.5853 28.5521 16.2597 29.3405 17.0995L30.6771 15.8446ZM27.3034 13.4431C25.9352 12.8256 24.4506 12.5085 22.9495 12.5132L22.9552 14.3466C24.1943 14.3426 25.4199 14.6044 26.5492 15.1141L27.3034 13.4431ZM22.9495 12.5132C21.4484 12.518 19.9657 12.8444 18.6014 13.4705L19.3662 15.1368C20.4923 14.6199 21.7162 14.3505 22.9552 14.3466L22.9495 12.5132ZM18.5973 13.4724C17.2167 14.1144 15.9939 15.0518 15.0154 16.2184L16.4201 17.3965C17.226 16.4356 18.2331 15.6636 19.3703 15.1349L18.5973 13.4724ZM40.7291 8.44953C37.2698 4.24327 32.4265 1.40537 27.066 0.443729L26.7423 2.24826C31.6743 3.13302 36.1304 5.74406 39.3131 9.61406L40.7291 8.44953ZM27.066 0.443729C21.7056 -0.517911 16.1778 0.459484 11.4721 3.20099L12.395 4.78509C16.7245 2.26275 21.8104 1.36349 26.7423 2.24826L27.066 0.443729ZM11.4721 3.20099C6.76644 5.94249 3.18996 10.2691 1.38278 15.4066L3.11223 16.015C4.77494 11.2882 8.06551 7.30743 12.395 4.78509L11.4721 3.20099ZM1.38278 15.4066C-0.424401 20.5441 -0.344313 26.157 1.60871 31.2408L3.3201 30.5833C1.52321 25.9059 1.44952 20.7417 3.11223 16.015L1.38278 15.4066ZM1.609 31.2416C2.34385 33.1493 3.33255 34.9492 4.5484 36.5928L6.02226 35.5024C4.90443 33.9914 3.99542 32.3365 3.31981 30.5826L1.609 31.2416Z" fill="white"/>
</svg>
