<svg width="119" height="46" viewBox="0 0 119 46" fill="none" xmlns="http://www.w3.org/2000/svg">
<path d="M51.3126 12.8152H68.469M59.8727 35.3159V12.7819M82.2649 35.3159V26.6305C82.289 25.1325 81.9145 23.6549 81.1799 22.3491C80.358 20.8542 79.0761 19.664 77.5244 18.9551C76.5527 18.5208 75.5007 18.2953 74.4364 18.293C72.8499 18.3107 71.3066 18.8125 70.013 19.7312C66.6385 22.1126 66.5634 26.2522 66.5634 26.6333C66.5655 27.9457 66.8763 29.2392 67.4707 30.4092C68.0651 31.5792 68.9265 32.5929 69.9852 33.3685C71.2053 34.2855 72.6814 34.7982 74.2073 34.8352C75.7331 34.8721 77.2323 34.4313 78.4953 33.5744C81.8337 31.3905 82.2064 27.2954 82.251 26.7168M87.1639 10.2642V29.4793C87.1639 29.9411 87.1639 31.78 88.4464 33.1181C88.832 33.5188 89.2874 33.8459 89.7901 34.0835C90.3826 34.3521 91.0288 34.4815 91.6791 34.4618H92.625M95.0703 10.3003V29.5155C95.0703 29.9773 95.0703 31.8134 96.3528 33.1515C96.7378 33.5528 97.1933 33.88 97.6965 34.1168C98.289 34.3855 98.9352 34.5149 99.5855 34.4952H100.531M109.342 34.8819C113.81 34.8819 117.187 30.848 117.223 26.6389C117.257 22.3658 113.846 18.2484 109.342 18.254C104.838 18.2596 101.449 22.3713 101.491 26.6333C101.525 30.8313 104.885 34.868 109.345 34.8763L109.342 34.8819Z" stroke="white" stroke-width="1.83333" stroke-miterlimit="10"/>
<path d="M23.0177 45C18.3299 44.9969 13.7648 43.5012 9.98409 40.7297M29.3439 44.068C33.3315 42.832 36.8959 40.5094 39.6372 37.3607C42.1501 34.4747 43.8638 30.9812 44.6081 27.2276C45.3524 23.474 45.1013 19.591 43.8797 15.9645M23.0149 7.56847C20.6871 7.56977 18.3895 8.09568 16.293 9.10712C14.1964 10.1186 12.3548 11.5895 10.9049 13.4106C8.86652 16.037 7.7107 19.2405 7.60272 22.5633C7.55228 24.3987 7.82634 26.2286 8.41227 27.9687M9.95906 31.1763C11.2629 33.2774 13.0548 35.0325 15.1824 36.2925C17.31 37.5525 19.7104 38.28 22.1796 38.4133C24.6487 38.5466 27.1135 38.0817 29.3644 37.0581C31.6153 36.0345 33.5857 34.4824 35.1081 32.534C37.2471 29.814 38.4214 26.4603 38.4465 23.0001C38.4124 19.5279 37.2396 16.1629 35.1081 13.4218C33.7174 11.6683 31.9647 10.2355 29.9698 9.22097M13.7064 20.7161C13.5421 21.4626 13.459 22.2246 13.4588 22.989C13.4583 23.7826 13.5517 24.5736 13.737 25.3453C14.1044 26.8066 14.8138 28.1596 15.8068 29.2929C16.7715 30.3787 17.9674 31.2343 19.3065 31.7967C20.4536 32.2753 21.6804 32.5339 22.9231 32.559C23.6749 32.5831 24.4259 32.4892 25.1487 32.2808C25.6248 32.1377 26.0824 31.9388 26.5118 31.6882L26.5341 22.733C26.5001 22.1446 26.3239 21.5732 26.0205 21.0678C25.7172 20.5625 25.2959 20.1382 24.7926 19.8314C24.3129 19.5369 23.7726 19.3553 23.2124 19.3001H19.6598V22.3324C19.7199 22.891 19.8861 23.433 20.1494 23.9293C20.5381 24.7163 21.165 25.3608 21.941 25.771C22.4389 26.0186 22.9825 26.1607 23.5379 26.1883H26.3727M31.1021 28.1078C31.5719 27.3812 31.9363 26.5916 32.1843 25.7626C32.7669 23.769 32.7036 21.6422 32.0035 19.6868C31.5586 18.4934 30.8805 17.4006 30.0088 16.4721C29.1371 15.5435 28.0893 14.7979 26.9263 14.2786C25.6775 13.715 24.3224 13.4256 22.9524 13.4299C21.5823 13.4342 20.229 13.7322 18.9838 14.3036C17.7249 14.889 16.6099 15.7437 15.7178 16.8074M40.0211 9.0318C36.7001 4.99367 32.0504 2.26919 26.9042 1.34599C21.758 0.42279 16.4512 1.36112 11.9336 3.99304C7.41598 6.62496 3.98245 10.7787 2.2475 15.7108C0.51256 20.6429 0.589447 26.0315 2.4644 30.9121C3.16963 32.7429 4.11849 34.4703 5.28533 36.0476" stroke="white" stroke-width="1.83333" stroke-miterlimit="10" stroke-linecap="round"/>
</svg>
