<?xml version="1.0" standalone="no"?>
<!DOCTYPE svg PUBLIC "-//W3C//DTD SVG 20010904//EN"
 "http://www.w3.org/TR/2001/REC-SVG-20010904/DTD/svg10.dtd">
<svg version="1.0" xmlns="http://www.w3.org/2000/svg"
 width="76.000000pt" height="76.000000pt" viewBox="0 0 76.000000 76.000000"
 preserveAspectRatio="xMidYMid meet">
<metadata>
Created by potrace 1.14, written by Peter Selinger 2001-2017
</metadata>
<g transform="translate(0.000000,76.000000) scale(0.100000,-0.100000)"
fill="#000000" stroke="none">
<path d="M255 741 c-105 -43 -179 -109 -216 -190 -11 -25 -24 -54 -29 -63 -5
-9 -8 -61 -7 -115 2 -80 7 -107 27 -148 26 -54 43 -75 59 -75 17 0 13 25 -9
63 -101 170 -21 399 168 484 111 50 256 28 353 -53 64 -55 66 -56 72 -40 12
30 -75 102 -164 135 -68 26 -194 27 -254 2z"/>
<path d="M346 652 c-3 -3 -18 -7 -32 -8 -38 -4 -102 -41 -132 -75 -37 -43 -71
-109 -67 -131 2 -10 0 -18 -4 -18 -5 0 -6 -17 -4 -37 9 -91 17 -110 39 -92 7
6 11 15 8 20 -11 18 -7 117 6 150 32 79 117 149 183 149 13 0 31 6 42 13 15
12 16 15 4 23 -18 11 -36 14 -43 6z"/>
<path d="M491 621 c-18 -11 -13 -23 22 -48 66 -49 99 -113 100 -195 1 -88 -59
-179 -142 -214 -43 -19 -139 -21 -169 -5 -12 7 -22 9 -22 6 0 -6 -30 19 -76
63 -39 37 -54 40 -54 13 0 -44 156 -147 190 -126 6 3 10 2 10 -4 0 -13 78 -4
125 13 59 22 87 44 126 96 28 38 52 98 44 110 -3 5 -1 11 4 14 8 6 8 42 -2 97
-7 37 -43 105 -70 129 -42 41 -73 59 -86 51z"/>
<path d="M340 550 c-33 -7 -88 -40 -95 -57 -9 -25 23 -25 60 0 62 42 150 25
191 -38 19 -30 29 -111 14 -120 -11 -7 -14 -55 -2 -55 15 0 29 16 39 45 42
130 -72 255 -207 225z"/>
<path d="M715 463 c13 -79 12 -116 -3 -168 -27 -98 -99 -185 -187 -226 -24
-11 -46 -27 -49 -34 -17 -46 103 6 172 75 26 26 61 73 77 106 26 52 30 71 32
158 2 102 -6 136 -33 136 -14 0 -15 -8 -9 -47z"/>
<path d="M314 452 c-8 -6 -11 -50 -5 -83 3 -19 45 -52 73 -58 25 -5 34 -13 36
-30 11 -77 -141 -29 -168 54 -6 19 -11 42 -10 52 4 32 0 43 -14 43 -34 0 -27
-97 12 -150 36 -51 82 -74 143 -73 72 1 76 8 74 115 -1 86 -3 92 -29 115 -27
23 -88 32 -112 15z m103 -70 c11 -47 -42 -48 -67 -1 -8 15 -8 24 0 34 16 20
59 -1 67 -33z"/>
<path d="M152 84 c7 -40 184 -99 234 -80 22 9 4 29 -29 32 -46 3 -82 14 -132
39 -61 29 -78 31 -73 9z"/>
</g>
</svg>
